<?xml version="1.0" standalone="no"?>
<!DOCTYPE svg PUBLIC "-//W3C//DTD SVG 20010904//EN"
 "http://www.w3.org/TR/2001/REC-SVG-20010904/DTD/svg10.dtd">
<svg version="1.0" xmlns="http://www.w3.org/2000/svg"
 width="260.000000pt" height="260.000000pt" viewBox="0 0 260.000000 260.000000"
 preserveAspectRatio="xMidYMid meet">
<metadata>
Created by potrace 1.14, written by Peter Selinger 2001-2017
</metadata>
<g transform="translate(0.000000,260.000000) scale(0.100000,-0.100000)"
fill="#000000" stroke="none">
<path d="M882 2023 l-442 -256 0 -623 0 -623 -57 -11 c-32 -6 -119 -26 -193
-45 -238 -59 -248 -72 -43 -56 390 30 576 36 1193 36 492 -1 709 -5 915 -18
149 -9 287 -20 308 -23 29 -5 37 -3 37 10 0 9 -15 19 -37 26 -61 16 -233 57
-295 70 l-58 11 0 624 0 623 -42 24 c-24 13 -214 123 -423 245 -209 121 -389
225 -401 231 -18 10 -77 -22 -462 -245z m807 -112 c199 -115 368 -214 376
-221 13 -11 15 -92 15 -577 l0 -565 -47 5 c-27 3 -104 12 -173 20 -132 16
-395 30 -517 27 l-73 -1 0 180 c0 166 -1 181 -17 180 -11 0 -13 -3 -5 -6 9 -3
12 -48 12 -172 l0 -168 -67 -6 c-38 -4 -101 -7 -140 -7 l-73 0 -14 33 c-10 26
-23 36 -55 45 -30 10 -41 18 -41 33 0 22 -29 83 -36 76 -2 -2 2 -17 11 -33 8
-16 15 -37 15 -47 0 -11 15 -24 43 -36 40 -17 77 -65 62 -79 -10 -11 -170 -21
-179 -12 -4 4 -12 57 -17 117 -9 127 -6 110 -25 117 -14 5 -15 4 -4 -9 6 -8
16 -61 20 -117 9 -111 6 -120 -40 -116 l-25 3 0 253 c0 138 -3 252 -7 252 -5
0 -8 -117 -8 -259 0 -288 4 -271 -71 -271 l-39 0 0 565 0 565 27 17 c40 27
717 421 724 422 4 1 169 -93 368 -208z"/>
<path d="M1380 1605 c0 -192 4 -345 8 -339 5 5 39 44 77 87 68 78 68 78 88 58
20 -19 19 -20 -62 -110 -44 -50 -81 -93 -81 -95 0 -3 126 -5 280 -6 l280 -1 0
204 0 204 -50 27 c-27 15 -50 24 -50 19 1 -4 20 -17 43 -29 l42 -20 3 -197 2
-197 -265 0 c-146 1 -265 3 -265 6 0 5 40 50 121 137 l57 59 38 -12 c21 -7 56
-26 78 -42 21 -15 41 -26 44 -23 3 3 3 6 1 8 -96 66 -150 87 -175 66 -12 -10
-19 -8 -39 11 l-24 22 -35 -38 c-19 -22 -50 -57 -70 -79 l-36 -40 1 329 c0
180 -2 331 -5 334 -4 3 -6 -152 -6 -343z"/>
<path d="M1416 1916 c2 -6 17 -17 32 -24 36 -17 94 -49 107 -59 6 -4 22 -14
37 -22 15 -8 25 -19 21 -24 -3 -6 -1 -7 5 -3 7 4 12 2 12 -4 0 -6 4 -9 9 -6 5
3 48 -17 96 -45 48 -27 89 -48 91 -46 2 2 -40 28 -94 59 -53 31 -147 85 -209
121 -62 36 -110 60 -107 53z"/>
<path d="M1596 1766 c5 -12 4 -17 -3 -13 -5 3 -10 0 -10 -8 0 -20 13 -19 21 2
4 9 2 21 -4 27 -8 8 -9 6 -4 -8z"/>
<path d="M1630 1751 c0 -10 19 -25 25 -20 1 2 -3 10 -11 17 -8 7 -14 8 -14 3z"/>
<path d="M1640 1691 c-16 -31 -12 -36 9 -12 12 14 25 20 32 15 8 -4 9 -3 5 4
-11 18 -34 14 -46 -7z"/>
<path d="M1592 1680 c7 -10 14 -18 15 -16 6 6 -9 36 -18 36 -5 0 -4 -9 3 -20z"/>
<path d="M1516 1668 c16 -12 31 -25 34 -28 3 -3 57 -52 120 -110 134 -121 195
-172 102 -84 -36 33 -62 66 -59 71 4 6 -1 10 -11 9 -9 0 -16 5 -14 12 1 8 -3
12 -10 10 -15 -5 -59 32 -52 44 3 5 1 7 -4 6 -5 -2 -32 18 -61 45 -29 26 -57
47 -63 47 -6 0 2 -10 18 -22z"/>
<path d="M1530 1609 c30 -30 100 -95 155 -144 55 -50 104 -94 108 -100 6 -6 7
-6 5 2 -2 6 -64 66 -138 134 -165 149 -202 180 -130 108z"/>
<path d="M1841 1604 c0 -11 3 -14 6 -6 3 7 2 16 -1 19 -3 4 -6 -2 -5 -13z"/>
<path d="M1798 1588 c-14 -14 -15 -18 -4 -18 8 0 17 7 20 16 9 23 4 24 -16 2z"/>
<path d="M1481 1575 c24 -36 69 -86 69 -77 0 5 -19 29 -41 53 -23 24 -35 35
-28 24z"/>
<path d="M1797 1526 c10 -13 20 -20 21 -15 5 12 -17 39 -30 39 -5 0 -1 -11 9
-24z"/>
<path d="M1536 1463 c-6 -14 -5 -15 5 -6 7 7 10 15 7 18 -3 3 -9 -2 -12 -12z"/>
<path d="M1818 1452 c9 -10 19 -17 21 -16 6 5 -20 34 -30 34 -5 0 -1 -8 9 -18z"/>
<path d="M1810 1351 c0 -6 4 -13 10 -16 6 -3 7 1 4 9 -7 18 -14 21 -14 7z"/>
<path d="M1660 1320 c6 -11 15 -20 20 -20 6 0 5 9 -2 20 -7 11 -16 20 -21 20
-4 0 -3 -9 3 -20z"/>
<path d="M1606 1315 c-11 -8 -15 -15 -9 -15 6 0 16 7 23 15 16 19 11 19 -14 0z"/>
<path d="M1610 1259 c7 -11 14 -18 17 -15 8 8 -5 36 -17 36 -7 0 -7 -6 0 -21z"/>
<path d="M1666 1272 c-2 -4 -1 -14 5 -22 7 -13 9 -12 9 2 0 9 8 19 18 21 13 4
12 5 -5 6 -12 0 -24 -3 -27 -7z"/>
<path d="M1104 1081 c8 -12 -85 -92 -98 -84 -6 3 -5 0 2 -8 10 -11 22 -4 70
44 40 40 52 57 39 57 -10 0 -16 -4 -13 -9z"/>
<path d="M1162 1055 c-28 -20 -52 -38 -52 -41 0 -3 19 8 43 24 23 16 51 34 62
40 11 6 15 12 10 12 -6 0 -34 -16 -63 -35z"/>
<path d="M1196 1033 c-37 -19 -66 -37 -63 -39 3 -3 34 9 68 27 70 34 74 37 68
43 -2 2 -35 -12 -73 -31z"/>
<path d="M1192 988 c-29 -12 -51 -22 -49 -24 5 -5 111 27 122 37 15 14 -15 9
-73 -13z"/>
<path d="M863 934 c16 -8 36 -13 45 -11 12 3 11 5 -5 6 -12 0 -25 6 -28 11 -3
6 -14 10 -23 10 -11 -1 -8 -6 11 -16z"/>
<path d="M967 923 c4 -25 1 -34 -16 -45 -24 -15 -26 -41 -5 -83 8 -16 12 -22
9 -12 -17 63 -17 69 4 88 11 11 21 26 21 34 0 7 6 16 13 18 7 4 6 6 -5 6 -9 1
-19 7 -21 14 -3 6 -3 -2 0 -20z"/>
<path d="M1163 939 c-18 -5 -33 -12 -33 -14 0 -6 62 6 80 16 13 7 13 8 0 8 -8
-1 -30 -5 -47 -10z"/>
<path d="M795 912 c-17 -15 -42 -40 -55 -57 -14 -16 0 -7 30 20 30 28 57 51
59 53 2 1 2 4 0 6 -2 3 -18 -8 -34 -22z"/>
<path d="M1060 910 c0 -5 7 -7 15 -4 8 4 15 8 15 10 0 2 -7 4 -15 4 -8 0 -15
-4 -15 -10z"/>
<path d="M995 890 c-3 -5 -1 -10 4 -10 6 0 11 5 11 10 0 6 -2 10 -4 10 -3 0
-8 -4 -11 -10z"/>
<path d="M874 845 c3 -9 0 -15 -8 -15 -7 0 -20 -8 -27 -17 -12 -16 -12 -17 1
-7 21 16 50 13 50 -4 0 -9 2 -13 5 -10 8 8 -7 68 -17 68 -6 0 -8 -7 -4 -15z"/>
<path d="M900 771 c0 -6 5 -13 10 -16 6 -3 10 1 10 9 0 9 -4 16 -10 16 -5 0
-10 -4 -10 -9z"/>
</g>
</svg>
